<?xml version="1.0" encoding="utf-8"?>
<!-- Generator: Adobe Illustrator 24.0.1, SVG Export Plug-In . SVG Version: 6.00 Build 0)  -->
<svg version="1.1" id="Layer_1" xmlns="http://www.w3.org/2000/svg" xmlns:xlink="http://www.w3.org/1999/xlink" x="0px" y="0px"
	 viewBox="0 0 200 200" style="enable-background:new 0 0 200 200;" xml:space="preserve">
<style type="text/css">
	.st0{fill:#508D4E;stroke:#508D4E;stroke-miterlimit:10;}
	.st1{fill:#FDFDFD;stroke:#508D4E;stroke-miterlimit:10;}
	.st2{fill:#FCFCFC;stroke:#508D4E;stroke-miterlimit:10;}
	.st3{fill:#FBFBFB;stroke:#508D4E;stroke-miterlimit:10;}
	.st4{fill:#F9F9F9;stroke:#669966;stroke-miterlimit:10;}
	.st5{fill:#FAFAFA;stroke:#508D4E;stroke-miterlimit:10;}
	.st6{fill:#F9F9F9;stroke:#508D4E;stroke-miterlimit:10;}
	.st7{fill:#F7F7F7;stroke:#508D4E;stroke-miterlimit:10;}
</style>
<g>
	<path class="st0" d="M164.98,96.47c-1.82,3.57-5.19,4.28-8.7,4.67c-4.74,0.53-9.28-0.61-13.82-1.72c-1.12-0.27-2.35-0.95-3.33-0.68
		c-0.94,0.25-1.32,1.7-1.99,2.59c-1.82,2.41-3.74,4.73-5.98,6.76c-0.64,0.58-0.76,1.03-0.39,1.85c2.14,4.7,4.23,9.42,6.28,14.15
		c0.46,1.05,0.81,2.17,1.03,3.3c0.77,3.86-0.83,6.55-4.54,7.83c-3.83,1.32-6.84,0.08-8.6-3.62c-1.92-4.05-2.96-8.42-4.48-12.62
		c-0.29-0.82-0.27-2.06-0.96-2.32c-0.56-0.21-1.49,0.6-2.26,0.92c-17.65,7.36-34.48,5.93-50.14-5.17
		c-10.53-7.47-17.2-17.73-19.77-30.41c-2.9-14.34-0.13-27.62,8.45-39.53c7.02-9.74,16.35-16.34,28.01-19.28
		c15.24-3.83,29.42-1.28,42.2,7.97c10.56,7.65,17.2,17.97,19.82,30.77c1.76,8.61,1.17,17.12-1.55,25.48
		c-0.08,0.26-0.14,0.53-0.25,0.77c-0.36,0.73,0.02,0.83,0.64,0.87c3.51,0.22,7.01,0.47,10.52,0.71c2.2,0.15,4.39,0.32,6.59,0.45
		c0.43,0.03,0.68,0.21,0.96,0.51c1,1.08,1.66,2.35,2.24,3.68C164.98,95.08,164.98,95.78,164.98,96.47z M126.62,87.72
		c3.8,0.28,7.37,0.52,10.95,0.81c0.61,0.05,0.68-0.31,0.83-0.72c1.17-3.15,2.05-6.37,2.52-9.71c1.6-11.44-0.8-22.01-7.28-31.48
		c-7.2-10.53-17.2-16.97-29.85-19.09c-11.74-1.97-22.63,0.46-32.39,7.13c-10.68,7.29-17.1,17.45-19.17,30.29
		c-1.61,9.97,0.04,19.44,4.91,28.18c7.06,12.68,17.84,20.4,32.22,22.87c9.77,1.68,19.03,0.06,27.84-4.41
		c0.66-0.33,0.67-0.63,0.47-1.23c-0.96-2.89-1.92-5.77-2.81-8.68c-0.28-0.92-0.58-0.86-1.33-0.44c-10.45,5.82-21.15,6.26-31.93,1.12
		C67.7,95.73,60.05,80.28,63.08,65.2c1.83-9.08,6.62-16.31,14.23-21.56c6.9-4.77,14.63-6.65,22.95-5.76
		c7.47,0.8,14.06,3.77,19.5,8.99c8.85,8.52,12.25,18.91,10.3,31.04C129.51,81.31,128.28,84.51,126.62,87.72z M109.42,86.52
		c-1.42-1.74-3.13-2.49-5.04-2.72c-1.37-0.17-2.16-0.9-2.73-2.02c-0.31-0.62-0.63-1.24-0.89-1.88c-3.38-8.31-6.62-16.68-9.74-25.09
		c-0.92-2.49-0.67-2.97,1.73-3.98c0.94-0.4,1.21-0.09,1.53,0.75c2.5,6.55,5.05,13.08,7.58,19.61c0.16,0.42,0.13,1.01,0.94,0.72
		c0.86-0.31,0.47-0.76,0.29-1.24c-2.29-5.93-4.59-11.85-6.86-17.78c-0.37-0.96-1.28-2.07-0.88-2.85c0.35-0.67,1.77-0.74,2.64-1.21
		c0.99-0.53,1.39-0.3,1.79,0.74c2.49,6.59,5.06,13.15,7.58,19.74c0.24,0.62,0.48,0.74,1.07,0.49c0.53-0.23,0.84-0.38,0.5-1.06
		c-0.44-0.89-0.73-1.86-1.09-2.8c-2.22-5.75-4.42-11.5-6.68-17.23c-0.3-0.77-0.21-1.1,0.57-1.33c0.74-0.22,1.48-0.46,2.15-0.83
		c0.85-0.46,1.19-0.28,1.53,0.64c2.5,6.59,5.07,13.15,7.6,19.73c0.25,0.64,0.45,0.94,1.2,0.58c0.77-0.36,0.25-0.79,0.12-1.12
		c-2.54-6.62-5.1-13.22-7.65-19.83c-0.12-0.31-0.53-0.65-0.12-1.02c1.43-1.3,3.57-1.02,4.52,0.59c0.19,0.33,0.34,0.69,0.48,1.05
		c2.08,5.3,4.22,10.59,6.23,15.92c1.37,3.64,2.94,7.21,3.91,10.99c0.29,1.14,0.2,2.18-0.63,3.14c-2.46,2.83-2.59,5.95-1.13,9.28
		c0.28,0.63,0.62,0.88,1.28,0.9c1.2,0.05,2.39,0.14,3.58,0.25c0.52,0.05,0.83-0.07,1.09-0.58c3.67-7.1,4.7-14.57,2.99-22.36
		c-1.84-8.38-6.33-15.11-13.35-20.03c-7.83-5.49-16.54-7.25-25.87-5.28c-9.56,2.02-16.93,7.37-21.79,15.85
		c-5.48,9.55-6.12,19.62-1.69,29.68c4.8,10.9,13.3,17.47,25.09,19.51c7.91,1.37,15.33-0.19,22.26-4.24
		c0.98-0.57,0.33-1.12,0.25-1.73c-0.1-0.78-0.61-0.63-1.11-0.54c-1.29,0.22-2.58,0.49-3.88,0.63c-6.26,0.65-12.47,0.26-18.61-1.17
		c-5.35-1.24-10.41-3.13-14.68-6.73c-2.09-1.76-3.71-3.88-4.7-6.79C83.75,84.74,96.48,85.62,109.42,86.52z M130.74,134.53
		c1.18-0.01,2.27-0.35,3.32-0.88c2.47-1.25,3.35-2.95,2.92-5.66c-0.2-1.26-0.6-2.47-1.12-3.63c-5.45-12.33-10.83-24.68-16.71-36.81
		c-1.79-3.7-2.03-7.37,0.72-10.74c0.75-0.93,0.95-1.79,0.6-2.86c-0.1-0.29-0.16-0.6-0.26-0.89c-3.05-8.68-6.45-17.23-9.89-25.77
		c-0.11-0.28-0.27-0.56-0.44-0.81c-0.42-0.59-0.93-0.71-1.59-0.35c-0.73,0.39-0.14,0.83-0.02,1.15c2.29,6.01,4.62,12,6.94,18
		c0.33,0.85,1.04,1.86,0.82,2.54c-0.24,0.74-1.6,0.71-2.39,1.16c-0.82,0.47-1.05,0.11-1.34-0.63c-2.51-6.54-5.06-13.07-7.57-19.61
		c-0.3-0.78-0.53-1.11-1.44-0.72c-0.82,0.35-0.83,0.67-0.54,1.42c2.35,5.98,4.66,11.98,6.98,17.98c0.34,0.89,1.11,2.01,0.83,2.64
		c-0.29,0.63-1.67,0.73-2.52,1.16c-0.8,0.4-1.14,0.24-1.47-0.62c-2.5-6.59-5.07-13.15-7.59-19.73c-0.28-0.73-0.5-1.03-1.35-0.65
		c-0.73,0.33-0.96,0.53-0.63,1.37c2.38,6.05,4.7,12.13,7.05,18.2c0.97,2.51,0.96,2.47-1.49,3.47c-0.85,0.35-1.15,0.17-1.46-0.66
		C98.6,66.06,96.06,59.53,93.52,53c-0.16-0.42-0.14-1.17-1.03-0.79c-0.73,0.31-0.93,0.73-0.61,1.44c0.06,0.14,0.09,0.29,0.15,0.44
		c2.53,6.7,5,13.42,7.72,20.04c1.01,2.46,1.85,4.98,3.09,7.34c0.28,0.53,0.62,0.97,1.28,1.04c4.53,0.48,7.13,3.22,8.35,7.37
		c3.61,12.31,7.8,24.43,11.75,36.63c0.61,1.87,1.23,3.74,2.29,5.41C127.49,133.48,128.78,134.56,130.74,134.53z M145.1,73.23
		c0.23-10.58-3.14-21.37-8.43-28.85c-5.26-7.45-11.95-13.17-20.27-16.94c-8.79-3.99-17.98-5.2-27.47-3.68
		C77.39,25.61,67.72,31.03,60,39.82c-6.85,7.79-10.84,16.89-11.84,27.23c-0.88,9.16,0.67,17.91,4.81,26.16
		c5.55,11.05,14.07,18.91,25.46,23.64c7.14,2.96,14.61,3.99,22.33,3.32c6.19-0.54,12.03-2.23,17.57-4.99
		c0.23-0.12,0.65-0.33,0.63-0.42c-0.19-0.81-0.33-1.69-0.76-2.38c-0.21-0.35-0.81,0.2-1.19,0.39c-9.85,4.85-20.13,6.11-30.84,3.64
		c-8.56-1.97-15.97-6.11-22.13-12.34c-7.3-7.39-11.65-16.3-13-26.64c-1.08-8.24,0.13-16.17,3.39-23.76
		c3.37-7.83,8.57-14.24,15.53-19.2c7.19-5.11,15.19-7.99,23.99-8.46c11.35-0.59,21.57,2.61,30.58,9.54
		c7.66,5.89,12.93,13.52,15.79,22.73c3.02,9.7,2.7,19.4-0.7,28.98c-0.47,1.32-0.45,1.25,0.93,1.49c1.11,0.19,1.58-0.12,1.94-1.24
		C144.18,82.4,145.1,77.19,145.1,73.23z M120.97,88.55c0.81,1.66,1.53,3.14,2.23,4.63c0.15,0.33,0.38,0.44,0.7,0.5
		c6.55,1.09,12.87,3.11,19.3,4.69c4.78,1.18,9.56,2.18,14.52,1.38c1.49-0.24,2.95-0.61,4.21-1.48c2.4-1.66,2.34-5.16-0.13-6.75
		c-0.18-0.11-0.43-0.13-0.66-0.14c-2.19-0.16-4.39-0.31-6.58-0.47c-7.2-0.51-14.4-1.03-21.6-1.53
		C129.04,89.09,125.12,88.83,120.97,88.55z M104.92,97.65c2.79-0.14,5.31-0.42,7.8-0.92c0.49-0.1,0.41-0.33,0.32-0.64
		c-0.7-2.32-1.28-4.68-2.08-6.97c-0.35-1.01-0.92-1.4-2-1.45c-4.09-0.21-8.17-0.54-12.25-0.82C89,86.3,81.3,85.76,73.6,85.22
		c-0.25-0.02-0.57-0.13-0.71,0.17c-0.12,0.24,0.13,0.42,0.24,0.61c1.38,2.36,3.39,4.05,5.63,5.56c0.97,0.65,1.75,1.07,2.39-0.33
		c0.16-0.36,0.41-0.37,0.73-0.12c0.37,0.29,0.22,0.52-0.01,0.74c-0.96,0.89-0.48,1.26,0.48,1.67c0.65,0.29,0.96,0.18,1.3-0.37
		c0.3-0.49,0.67-0.94,1.04-1.39c0.21-0.25,0.3-0.78,0.85-0.39c0.55,0.38,0.13,0.63-0.07,0.91c-0.34,0.47-0.69,0.93-1.04,1.39
		c-0.13,0.18-0.34,0.36-0.19,0.6c0.32,0.52,2.03,0.57,2.41,0.07c0.59-0.77,1.16-1.54,1.75-2.31c0.22-0.28,0.36-0.72,0.88-0.32
		c0.57,0.44,0.02,0.67-0.15,0.92c-0.5,0.73-1.06,1.42-1.59,2.14c-0.12,0.16-0.37,0.31-0.13,0.58c0.49,0.56,2.05,0.49,2.52-0.13
		c0.74-0.99,1.48-1.98,2.22-2.96c0.2-0.26,0.33-0.63,0.8-0.27c0.43,0.33,0.2,0.54-0.02,0.83c-0.81,1.07-1.6,2.15-2.41,3.25
		c1.97,0.76,1.97,0.76,3.13-0.78c0.65-0.86,1.29-1.73,1.95-2.59c0.21-0.27,0.34-0.76,0.87-0.38c0.54,0.39,0.11,0.65-0.09,0.92
		c-0.86,1.17-1.73,2.33-2.67,3.59c0.44,0.07,0.75,0.07,1.03,0.17c0.97,0.33,1.64,0.11,2.21-0.82c0.69-1.11,1.55-2.12,2.35-3.16
		c0.21-0.27,0.31-0.77,0.87-0.39c0.58,0.4,0.11,0.65-0.09,0.92c-0.9,1.23-1.81,2.45-2.81,3.79c0.49,0.03,0.8,0,1.09,0.08
		c1.08,0.29,1.8-0.06,2.37-1.03c0.52-0.89,1.18-1.72,1.87-2.5c0.34-0.38,0.48-1.42,1.22-0.9c0.78,0.55-0.2,1-0.46,1.41
		c-0.68,1.05-1.48,2.03-2.29,3.12c1.64,0.28,2.95,0.25,3.8-1.38c0.49-0.95,1.27-1.74,1.92-2.61c0.21-0.28,0.37-0.59,0.81-0.27
		c0.46,0.32,0.19,0.56-0.02,0.83C106.74,95.21,105.92,96.31,104.92,97.65z M133.46,97.05c-3.12-0.8-6.14-1.6-9.43-2.11
		c1.36,2.99,2.64,5.83,3.97,8.74C130.05,101.59,131.86,99.47,133.46,97.05z M129.62,107.24c2.95-2.75,5.46-5.73,7.66-9.13
		c-0.81-0.24-1.54-0.43-2.27-0.67c-0.43-0.14-0.63,0.09-0.84,0.4c-1.58,2.29-3.36,4.41-5.33,6.36c-0.27,0.27-0.41,0.52-0.22,0.91
		C128.95,105.79,129.26,106.48,129.62,107.24z"/>
	<path class="st1" d="M126.62,87.72c1.66-3.21,2.89-6.41,3.43-9.82c1.95-12.12-1.45-22.52-10.3-31.04
		c-5.43-5.23-12.03-8.19-19.5-8.99c-8.32-0.9-16.05,0.99-22.95,5.76c-7.6,5.26-12.4,12.49-14.23,21.56
		c-3.04,15.08,4.62,30.53,18.52,37.16c10.78,5.14,21.48,4.7,31.93-1.12c0.74-0.41,1.04-0.48,1.33,0.44c0.89,2.91,1.84,5.8,2.81,8.68
		c0.2,0.6,0.19,0.89-0.47,1.23c-8.81,4.47-18.07,6.1-27.84,4.41c-14.38-2.48-25.16-10.2-32.22-22.87
		c-4.87-8.75-6.52-18.22-4.91-28.18c2.07-12.84,8.5-23,19.17-30.29c9.77-6.67,20.66-9.09,32.39-7.13
		c12.65,2.12,22.65,8.56,29.85,19.09c6.48,9.48,8.88,20.05,7.28,31.48c-0.47,3.34-1.34,6.56-2.52,9.71
		c-0.15,0.41-0.22,0.77-0.83,0.72C134,88.25,130.42,88,126.62,87.72z"/>
	<path class="st2" d="M109.42,86.52c-12.93-0.9-25.67-1.78-38.59-2.67c0.99,2.92,2.61,5.03,4.7,6.79c4.26,3.6,9.33,5.49,14.68,6.73
		c6.13,1.43,12.34,1.81,18.61,1.17c1.3-0.13,2.59-0.41,3.88-0.63c0.5-0.08,1.01-0.24,1.11,0.54c0.08,0.61,0.73,1.16-0.25,1.73
		c-6.93,4.05-14.35,5.61-22.26,4.24c-11.79-2.04-20.29-8.61-25.09-19.51c-4.43-10.06-3.79-20.13,1.69-29.68
		c4.86-8.47,12.22-13.83,21.79-15.85c9.33-1.97,18.04-0.2,25.87,5.28c7.02,4.92,11.51,11.65,13.35,20.03
		c1.71,7.78,0.68,15.26-2.99,22.36c-0.26,0.51-0.57,0.63-1.09,0.58c-1.19-0.11-2.39-0.2-3.58-0.25c-0.65-0.03-1-0.27-1.28-0.9
		c-1.45-3.33-1.33-6.46,1.13-9.28c0.83-0.95,0.92-2,0.63-3.14c-0.97-3.78-2.54-7.35-3.91-10.99c-2.01-5.33-4.14-10.62-6.23-15.92
		c-0.14-0.36-0.28-0.72-0.48-1.05c-0.95-1.62-3.09-1.9-4.52-0.59c-0.41,0.37,0,0.71,0.12,1.02c2.54,6.61,5.11,13.22,7.65,19.83
		c0.13,0.33,0.65,0.76-0.12,1.12c-0.75,0.36-0.95,0.06-1.2-0.58c-2.53-6.58-5.1-13.14-7.6-19.73c-0.35-0.91-0.68-1.1-1.53-0.64
		c-0.67,0.36-1.42,0.61-2.15,0.83c-0.78,0.23-0.88,0.55-0.57,1.33c2.26,5.73,4.46,11.49,6.68,17.23c0.36,0.93,0.65,1.9,1.09,2.8
		c0.34,0.68,0.02,0.84-0.5,1.06c-0.59,0.25-0.83,0.13-1.07-0.49c-2.51-6.58-5.09-13.15-7.58-19.74c-0.4-1.05-0.8-1.28-1.79-0.74
		c-0.87,0.47-2.29,0.54-2.64,1.21c-0.4,0.78,0.51,1.89,0.88,2.85c2.27,5.93,4.57,11.86,6.86,17.78c0.18,0.48,0.57,0.93-0.29,1.24
		c-0.81,0.29-0.78-0.3-0.94-0.72c-2.53-6.53-5.08-13.06-7.58-19.61c-0.32-0.83-0.58-1.14-1.53-0.75c-2.4,1.01-2.66,1.49-1.73,3.98
		c3.12,8.41,6.36,16.78,9.74,25.09c0.26,0.64,0.58,1.26,0.89,1.88c0.57,1.13,1.36,1.86,2.73,2.02
		C106.28,84.03,108,84.78,109.42,86.52z M68.31,74.56c0.03,0.58,0.03,1.08,0.09,1.58c0.04,0.36-0.17,0.88,0.57,0.86
		c0.72-0.02,0.69-0.44,0.64-0.93c-0.17-1.86-0.06-3.71,0.17-5.55c0.69-5.42,2.59-10.37,5.8-14.8c0.31-0.43,0.35-0.66-0.12-1.01
		c-0.54-0.39-0.65,0.01-0.86,0.31C70.41,60.89,68.4,67.46,68.31,74.56z M78.36,52.25c0.15-0.1,0.29-0.16,0.39-0.26
		c1.66-1.68,3.49-3.14,5.48-4.4c0.52-0.33,0.1-0.58-0.01-0.85c-0.17-0.41-0.4-0.32-0.71-0.12c-2.01,1.31-3.88,2.79-5.57,4.48
		c-0.15,0.15-0.4,0.31-0.18,0.57C77.93,51.87,78.14,52.04,78.36,52.25z"/>
	<path class="st3" d="M130.74,134.53c-1.96,0.03-3.25-1.05-4.23-2.59c-1.06-1.67-1.68-3.55-2.29-5.41
		c-3.96-12.2-8.14-24.32-11.75-36.63c-1.22-4.16-3.82-6.9-8.35-7.37c-0.66-0.07-1-0.51-1.28-1.04c-1.24-2.36-2.07-4.89-3.09-7.34
		c-2.73-6.62-5.19-13.35-7.72-20.04c-0.05-0.14-0.08-0.3-0.15-0.44c-0.33-0.71-0.12-1.13,0.61-1.44c0.89-0.38,0.87,0.36,1.03,0.79
		c2.54,6.53,5.08,13.06,7.57,19.61c0.32,0.84,0.61,1.01,1.46,0.66c2.44-1,2.46-0.96,1.49-3.47c-2.34-6.07-4.66-12.15-7.05-18.2
		c-0.33-0.84-0.1-1.05,0.63-1.37c0.85-0.38,1.07-0.08,1.35,0.65c2.52,6.58,5.08,13.14,7.59,19.73c0.33,0.86,0.66,1.03,1.47,0.62
		c0.85-0.43,2.23-0.53,2.52-1.16c0.28-0.63-0.48-1.75-0.83-2.64c-2.31-6-4.62-12-6.98-17.98c-0.29-0.75-0.28-1.07,0.54-1.42
		c0.92-0.39,1.15-0.06,1.44,0.72c2.51,6.54,5.06,13.07,7.57,19.61c0.28,0.74,0.51,1.1,1.34,0.63c0.79-0.45,2.15-0.42,2.39-1.16
		c0.23-0.69-0.49-1.69-0.82-2.54c-2.32-6-4.65-11.99-6.94-18c-0.12-0.32-0.71-0.75,0.02-1.15c0.67-0.36,1.18-0.24,1.59,0.35
		c0.18,0.25,0.33,0.52,0.44,0.81c3.44,8.53,6.84,17.08,9.89,25.77c0.1,0.29,0.17,0.59,0.26,0.89c0.36,1.07,0.15,1.93-0.6,2.86
		c-2.74,3.38-2.51,7.04-0.72,10.74c5.88,12.13,11.26,24.49,16.71,36.81c0.51,1.16,0.91,2.37,1.12,3.63
		c0.43,2.71-0.45,4.41-2.92,5.66C133.01,134.18,131.92,134.51,130.74,134.53z M116.32,94.48c-0.45,0.13-0.88,0.18-0.63,0.9
		c1.73,5.02,3.41,10.06,5.1,15.1c0.15,0.45,0.33,0.58,0.81,0.4c0.44-0.16,0.5-0.33,0.35-0.76c-1.73-5.06-3.43-10.13-5.14-15.2
		C116.73,94.68,116.73,94.34,116.32,94.48z M123.55,118.37c0.55-0.13,1.04-0.17,0.78-0.9c-0.5-1.37-0.95-2.77-1.41-4.16
		c-0.14-0.43-0.38-0.51-0.78-0.36c-0.37,0.13-0.58,0.24-0.39,0.73c0.53,1.41,0.98,2.84,1.46,4.26
		C123.28,118.18,123.32,118.41,123.55,118.37z"/>
	<path class="st4" d="M145.1,73.23c0,3.96-0.92,9.17-2.6,14.27c-0.37,1.11-0.83,1.43-1.94,1.24c-1.38-0.24-1.4-0.17-0.93-1.49
		c3.39-9.59,3.71-19.28,0.7-28.98c-2.86-9.2-8.13-16.83-15.79-22.73c-9.01-6.93-19.23-10.14-30.58-9.54
		c-8.8,0.46-16.81,3.34-23.99,8.46c-6.96,4.95-12.16,11.37-15.53,19.2c-3.26,7.59-4.47,15.52-3.39,23.76
		c1.35,10.34,5.69,19.25,13,26.64c6.16,6.23,13.57,10.37,22.13,12.34c10.71,2.46,20.99,1.21,30.84-3.64
		c0.39-0.19,0.98-0.73,1.19-0.39c0.42,0.69,0.57,1.57,0.76,2.38c0.02,0.09-0.4,0.31-0.63,0.42c-5.55,2.76-11.39,4.45-17.57,4.99
		c-7.72,0.67-15.19-0.35-22.33-3.32c-11.39-4.72-19.91-12.59-25.46-23.64c-4.15-8.26-5.7-17.01-4.81-26.16
		c1-10.33,4.99-19.43,11.84-27.23c7.72-8.78,17.39-14.21,28.94-16.05c9.49-1.52,18.69-0.31,27.47,3.68
		c8.32,3.78,15,9.49,20.27,16.94C141.97,51.87,145.33,62.66,145.1,73.23z"/>
	<path class="st2" d="M120.97,88.55c4.15,0.28,8.07,0.55,12,0.82c7.2,0.51,14.4,1.02,21.6,1.53c2.19,0.16,4.39,0.31,6.58,0.47
		c0.22,0.02,0.48,0.03,0.66,0.14c2.47,1.58,2.53,5.09,0.13,6.75c-1.27,0.87-2.72,1.24-4.21,1.48c-4.96,0.81-9.74-0.2-14.52-1.38
		c-6.43-1.58-12.75-3.61-19.3-4.69c-0.33-0.05-0.55-0.17-0.7-0.5C122.5,91.69,121.78,90.21,120.97,88.55z"/>
	<path class="st5" d="M104.92,97.65c1-1.33,1.82-2.44,2.65-3.55c0.21-0.27,0.48-0.51,0.02-0.83c-0.44-0.31-0.6-0.01-0.81,0.27
		c-0.65,0.87-1.43,1.66-1.92,2.61c-0.85,1.63-2.15,1.66-3.8,1.38c0.81-1.09,1.61-2.07,2.29-3.12c0.27-0.41,1.25-0.85,0.46-1.41
		c-0.74-0.52-0.89,0.53-1.22,0.9c-0.69,0.77-1.35,1.6-1.87,2.5c-0.57,0.98-1.29,1.33-2.37,1.03c-0.29-0.08-0.6-0.05-1.09-0.08
		c0.99-1.33,1.91-2.55,2.81-3.79c0.19-0.27,0.67-0.52,0.09-0.92c-0.56-0.38-0.66,0.12-0.87,0.39c-0.8,1.04-1.66,2.05-2.35,3.16
		c-0.57,0.92-1.24,1.14-2.21,0.82c-0.28-0.09-0.58-0.1-1.03-0.17c0.93-1.26,1.81-2.42,2.67-3.59c0.2-0.27,0.64-0.54,0.09-0.92
		c-0.53-0.38-0.67,0.11-0.87,0.38c-0.66,0.85-1.3,1.72-1.95,2.59c-1.16,1.55-1.16,1.55-3.13,0.78c0.81-1.09,1.6-2.18,2.41-3.25
		c0.22-0.29,0.45-0.5,0.02-0.83c-0.46-0.36-0.6,0.01-0.8,0.27c-0.74,0.99-1.48,1.98-2.22,2.96c-0.47,0.62-2.03,0.69-2.52,0.13
		c-0.24-0.27,0.02-0.42,0.13-0.58c0.52-0.72,1.08-1.41,1.59-2.14c0.17-0.25,0.72-0.48,0.15-0.92c-0.52-0.4-0.66,0.04-0.88,0.32
		c-0.59,0.76-1.16,1.54-1.75,2.31c-0.38,0.49-2.08,0.45-2.41-0.07c-0.15-0.24,0.06-0.42,0.19-0.6c0.35-0.46,0.7-0.92,1.04-1.39
		c0.2-0.28,0.61-0.53,0.07-0.91c-0.56-0.39-0.65,0.14-0.85,0.39c-0.37,0.45-0.74,0.9-1.04,1.39c-0.34,0.56-0.65,0.66-1.3,0.37
		c-0.96-0.42-1.44-0.78-0.48-1.67c0.24-0.22,0.39-0.46,0.01-0.74c-0.32-0.25-0.57-0.24-0.73,0.12c-0.63,1.4-1.42,0.98-2.39,0.33
		c-2.23-1.5-4.25-3.2-5.63-5.56c-0.11-0.19-0.36-0.37-0.24-0.61c0.15-0.3,0.47-0.19,0.71-0.17c7.7,0.54,15.41,1.08,23.11,1.62
		c4.08,0.29,8.16,0.61,12.25,0.82c1.09,0.06,1.65,0.44,2,1.45c0.8,2.29,1.38,4.65,2.08,6.97c0.09,0.31,0.17,0.54-0.32,0.64
		C110.23,97.22,107.71,97.5,104.92,97.65z"/>
	<path class="st6" d="M133.46,97.05c-1.6,2.42-3.41,4.54-5.47,6.64c-1.32-2.92-2.61-5.75-3.97-8.74
		C127.32,95.44,130.33,96.25,133.46,97.05z"/>
	<path class="st7" d="M129.62,107.24c-0.36-0.77-0.67-1.46-1-2.13c-0.19-0.38-0.05-0.64,0.22-0.91c1.97-1.96,3.76-4.07,5.33-6.36
		c0.21-0.31,0.41-0.54,0.84-0.4c0.72,0.23,1.46,0.43,2.27,0.67C135.08,101.51,132.57,104.49,129.62,107.24z"/>
	<path class="st0" d="M68.31,74.56c0.09-7.11,2.1-13.67,6.29-19.53c0.21-0.29,0.33-0.7,0.86-0.31c0.48,0.35,0.43,0.58,0.12,1.01
		c-3.21,4.43-5.11,9.38-5.8,14.8c-0.23,1.84-0.34,3.69-0.17,5.55c0.04,0.48,0.08,0.91-0.64,0.93c-0.75,0.02-0.53-0.5-0.57-0.86
		C68.35,75.64,68.34,75.14,68.31,74.56z"/>
	<path class="st0" d="M78.36,52.25c-0.22-0.21-0.43-0.38-0.61-0.58c-0.22-0.26,0.03-0.41,0.18-0.57c1.69-1.7,3.56-3.18,5.57-4.48
		c0.31-0.2,0.55-0.28,0.71,0.12c0.11,0.28,0.53,0.52,0.01,0.85c-1.99,1.26-3.82,2.72-5.48,4.4C78.65,52.1,78.51,52.16,78.36,52.25z"
		/>
	<path class="st0" d="M116.32,94.48c0.41-0.13,0.41,0.2,0.49,0.44c1.71,5.07,3.42,10.14,5.14,15.2c0.15,0.43,0.09,0.6-0.35,0.76
		c-0.48,0.18-0.66,0.05-0.81-0.4c-1.69-5.04-3.37-10.07-5.1-15.1C115.44,94.66,115.86,94.61,116.32,94.48z"/>
	<path class="st0" d="M123.55,118.37c-0.22,0.04-0.26-0.19-0.34-0.42c-0.47-1.42-0.93-2.86-1.46-4.26c-0.18-0.49,0.02-0.6,0.39-0.73
		c0.4-0.14,0.64-0.06,0.78,0.36c0.45,1.39,0.91,2.78,1.41,4.16C124.59,118.2,124.1,118.23,123.55,118.37z"/>
</g>
</svg>
